<?xml version="1.0" standalone="no"?><!DOCTYPE svg PUBLIC "-//W3C//DTD SVG 1.1//EN" "http://www.w3.org/Graphics/SVG/1.1/DTD/svg11.dtd"><svg t="1628170236190" class="icon" viewBox="0 0 1024 1024" version="1.1" xmlns="http://www.w3.org/2000/svg" p-id="2469" xmlns:xlink="http://www.w3.org/1999/xlink" width="200" height="200"><defs><style type="text/css"></style></defs><path d="M42.666667 42.666667v810.666666h810.666666V42.666667H42.666667zM0 0h896v896H0V0z" p-id="2470"></path><path d="M128 853.333333h42.666667v128H128zM853.333333 128h170.666667v42.666667h-170.666667zM128 981.333333h896v42.666667H128z" p-id="2471"></path><path d="M981.333333 128h42.666667v853.333333h-42.666667z" p-id="2472"></path><path d="M618.666667 298.666667a42.666667 42.666667 0 1 0 0-85.333334 42.666667 42.666667 0 0 0 0 85.333334z m0 42.666666a85.333333 85.333333 0 1 1 0-170.666666 85.333333 85.333333 0 0 1 0 170.666666zM618.666667 597.333333a42.666667 42.666667 0 1 0 0-85.333333 42.666667 42.666667 0 0 0 0 85.333333z m0 42.666667a85.333333 85.333333 0 1 1 0-170.666667 85.333333 85.333333 0 0 1 0 170.666667zM256 448a42.666667 42.666667 0 1 0 0-85.333333 42.666667 42.666667 0 0 0 0 85.333333z m0 42.666667a85.333333 85.333333 0 1 1 0-170.666667 85.333333 85.333333 0 0 1 0 170.666667z" p-id="2473"></path><path d="M405.333333 234.666667h42.666667v320h-42.666667zM320 384h85.333333v42.666667h-85.333333z" p-id="2474"></path><path d="M405.333333 234.666667h170.666667v42.666666h-170.666667zM405.333333 533.333333h170.666667v42.666667h-170.666667zM213.333333 746.666667h469.333334v21.333333H213.333333z" p-id="2475"></path></svg>