<?xml version="1.0" standalone="no"?><!DOCTYPE svg PUBLIC "-//W3C//DTD SVG 1.1//EN" "http://www.w3.org/Graphics/SVG/1.1/DTD/svg11.dtd"><svg t="1628171367919" class="icon" viewBox="0 0 1024 1024" version="1.1" xmlns="http://www.w3.org/2000/svg" p-id="16856" xmlns:xlink="http://www.w3.org/1999/xlink" width="200" height="200"><defs><style type="text/css"></style></defs><path d="M332.066133 887.466667l37.956267-63.2576-45.994667-52.036267c7.304533-21.077333 10.9568-45.909333 10.9568-74.478933V314.0608c0-29.243733-3.652267-55.0912-10.948266-77.5424-7.304533-22.442667-16.7936-41.147733-28.475734-56.1152-12.16-14.2848-25.668267-25.1648-40.507733-32.648533-14.848-7.483733-29.806933-11.221333-44.893867-11.221334-15.086933 0-30.0544 3.7376-44.893866 11.221334-14.848 7.483733-28.100267 18.363733-39.7824 32.648533-12.168533 14.967467-21.896533 33.672533-29.201067 56.1152-7.296 22.442667-10.948267 48.298667-10.948267 77.5424v383.633067c0 30.609067 3.652267 56.797867 10.948267 78.557866 7.304533 21.768533 17.032533 39.790933 29.201067 54.075734 11.682133 14.967467 24.942933 26.197333 39.7824 33.672533 14.848 7.483733 29.806933 11.221333 44.885333 11.221333 29.696 0 55.722667-12.578133 78.114133-37.751466L332.066133 887.466667zM210.158933 771.157333c-13.627733 0-25.429333-5.956267-35.4048-17.860266s-14.967467-30.4384-14.967466-55.6032V314.0608c0-25.1648 4.992-43.6992 14.967466-55.6032 9.984-11.904 21.777067-17.851733 35.4048-17.851733s25.429333 5.947733 35.4048 17.851733 14.958933 30.4384 14.958934 55.6032V699.733333l-29.9264-33.672533-37.956267 63.2576 33.578667 37.751467c-3.8912 2.730667-9.250133 4.087467-16.059734 4.087466z m264.977067 97.9456v-283.648h37.956267c27.741867 0 50.1248-6.621867 67.157333-19.882666 17.032533-13.269333 30.660267-31.803733 40.874667-55.611734 8.763733-19.729067 14.481067-40.814933 17.160533-63.2576 2.679467-22.442667 4.010667-49.9968 4.010667-82.645333 0-43.528533-2.432-78.0544-7.296-103.560533-4.864-25.506133-13.627733-47.786667-26.282667-66.824534-12.6464-19.0464-26.760533-32.315733-42.333867-39.790933-15.573333-7.483733-33.578667-11.229867-54.016-11.229867H400.682667v726.442667h74.453333z m35.771733-381.5936H475.136V240.605867h38.690133c14.592 0 25.787733 3.054933 33.578667 9.181866 7.7824 6.1184 13.627733 14.958933 17.518933 26.5216 3.8912 11.5712 6.084267 25.002667 6.570667 40.302934 0.4864 15.3088 0.725333 31.4624 0.725333 48.469333 0 18.363733-0.3584 35.029333-1.092266 49.988267-0.733867 14.967467-3.037867 27.554133-6.9376 37.751466-3.8912 10.888533-9.975467 19.387733-18.244267 25.514667-8.277333 6.1184-19.950933 9.173333-35.037867 9.173333z m299.281067 387.712c23.850667 0 44.049067-5.435733 60.586667-16.324266 16.554667-10.88 29.934933-25.847467 40.149333-44.885334 9.728-18.372267 16.7936-40.644267 21.1712-66.833066 4.3776-26.197333 6.570667-54.587733 6.570667-85.1968 0-26.530133-0.9728-50.167467-2.9184-70.912-1.9456-20.736-5.597867-39.278933-10.948267-55.6032-5.845333-15.6416-13.8752-29.4144-24.0896-41.3184-10.222933-11.904-23.6032-22.272-40.149333-31.121067l-56.9344-31.633067c-9.736533-5.435733-17.408-10.88-22.997334-16.324266a54.135467 54.135467 0 0 1-12.7744-19.3792c-2.9184-7.483733-4.744533-15.991467-5.4784-25.514667-0.725333-9.5232-1.092267-21.418667-1.092266-35.703467 0-12.245333 0.733867-23.978667 2.193066-35.2 1.450667-11.229867 4.130133-21.256533 8.021334-30.1056 3.899733-8.157867 9.0112-14.958933 15.3344-20.394666 6.3232-5.4528 14.592-8.1664 24.814933-8.1664 18.986667 0 32.4864 8.669867 40.516267 26.018133 8.029867 17.339733 12.049067 37.9136 12.049066 61.7216v23.466667H938.666667V300.8c0-42.171733-11.195733-79.581867-33.578667-112.2304-11.195733-15.650133-24.456533-28.228267-39.7824-37.751467C849.979733 141.294933 833.066667 136.533333 814.574933 136.533333c-21.905067 0-40.763733 5.2736-56.576 15.812267-15.812267 10.5472-28.834133 24.661333-39.057066 42.3424-10.7008 17.6896-18.730667 38.775467-24.081067 63.2576-5.358933 24.490667-8.029867 50.338133-8.029867 77.5424 0 45.568 5.469867 83.498667 16.418134 113.7664 10.948267 30.267733 32.4864 54.5792 64.597333 72.951467l53.2992 30.609066c9.2416 5.435733 16.6656 10.538667 22.263467 15.300267 5.589333 4.7616 10.094933 10.88 13.499733 18.363733 2.9184 7.483733 4.864 17.348267 5.845333 29.5936 0.9728 12.2368 1.450667 27.886933 1.450667 46.933334a813.909333 813.909333 0 0 1-1.092267 44.373333c-0.725333 13.269333-3.037867 24.661333-6.929066 34.184533-3.899733 9.5232-9.3696 16.836267-16.426667 21.930667-7.057067 5.111467-16.913067 7.662933-29.568 7.662933-18.978133 0-32.477867-7.6544-40.507733-22.954666-8.029867-15.3088-12.049067-32.4864-12.049067-51.5328v-32.648534H683.178667v38.775467c0 24.490667 3.285333 47.104 9.856 67.84 6.570667 20.753067 15.445333 38.946133 26.641066 54.596267 11.195733 15.6416 24.576 27.886933 40.149334 36.727466a100.3264 100.3264 0 0 0 50.363733 13.2608z" p-id="16857"></path></svg>