<?xml version="1.0" standalone="no"?><!DOCTYPE svg PUBLIC "-//W3C//DTD SVG 1.1//EN" "http://www.w3.org/Graphics/SVG/1.1/DTD/svg11.dtd"><svg t="1628171605546" class="icon" viewBox="0 0 1024 1024" version="1.1" xmlns="http://www.w3.org/2000/svg" p-id="18459" xmlns:xlink="http://www.w3.org/1999/xlink" width="200" height="200"><defs><style type="text/css"></style></defs><path d="M476.44 224.224A109.6 109.6 0 0 0 475.304 240c0 26.192 9.264 50.216 24.696 68.984a125.8 125.8 0 0 0-9.648 12.728c-18.32 27.52-29.16 60.392-45.704 130.128l-2.016 8.512c-18.688 78.984-29.56 113.44-52.216 149.68-31.128 49.816-77.016 77.864-139.36 80.464a9.28 9.28 0 0 1-9.664-9.264v-61.344c0-5.016 3.928-9.152 8.944-9.408 62.456-3.184 84.48-41.888 114.448-168.56l2.024-8.544c18.76-79.072 31.536-117.824 56.96-156 14.616-21.952 32.12-39.76 52.672-53.152z m214.728-2.48c22.432 13.944 41.216 33.096 56.544 57.104 24.56 38.488 36.2 76.088 54.376 157.712l1.016 4.568c16.136 72.544 25.256 102.768 41.872 129.728 16.92 27.472 38.8 41.92 73.336 44.656 7.184 0.56 12.72 6.56 12.72 13.76v57.376a9.168 9.168 0 0 1-9.52 9.16c-65.28-2.536-112.888-31.44-144.648-82.984-23.064-37.44-33.656-72.528-51.856-154.32l-1.008-4.56c-16.08-72.192-26.016-104.312-43.728-132.048a121.2 121.2 0 0 0-10.88-14.64A108.232 108.232 0 0 0 692.696 240c0-6.216-0.52-12.32-1.52-18.248zM208 784h712a16 16 0 0 1 16 16v48a16 16 0 0 1-16 16H128V184a16 16 0 0 1 16-16h48a16 16 0 0 1 16 16v600z m376-480a64 64 0 1 1 0-128 64 64 0 0 1 0 128z" p-id="18460"></path></svg>