<?xml version="1.0" standalone="no"?><!DOCTYPE svg PUBLIC "-//W3C//DTD SVG 1.1//EN" "http://www.w3.org/Graphics/SVG/1.1/DTD/svg11.dtd"><svg t="1628168791260" class="icon" viewBox="0 0 1024 1024" version="1.1" xmlns="http://www.w3.org/2000/svg" p-id="883" xmlns:xlink="http://www.w3.org/1999/xlink" width="200" height="200"><defs><style type="text/css"></style></defs><path d="M533.333333 661.333333c0-21.333333 2.133333-42.666667 8.533334-64H85.333333c-23.466667 0-42.666667 19.2-42.666666 42.666667v170.666667c0 23.466667 19.2 42.666667 42.666666 42.666666h535.466667c-53.333333-46.933333-87.466667-115.2-87.466667-192zM85.333333 533.333333h482.133334c40.533333-68.266667 110.933333-117.333333 194.133333-125.866666-6.4-12.8-21.333333-23.466667-38.4-23.466667H85.333333c-23.466667 0-42.666667 19.2-42.666666 42.666667v64c0 23.466667 19.2 42.666667 42.666666 42.666666z m202.666667-106.666666h42.666667c17.066667 0 32 14.933333 32 32s-14.933333 32-32 32h-42.666667c-17.066667 0-32-14.933333-32-32s14.933333-32 32-32z m-149.333333 0h42.666666c17.066667 0 32 14.933333 32 32S198.4 490.666667 181.333333 490.666667h-42.666666c-17.066667 0-32-14.933333-32-32S121.6 426.666667 138.666667 426.666667zM85.333333 320h640c23.466667 0 42.666667-19.2 42.666667-42.666667v-64c0-23.466667-19.2-42.666667-42.666667-42.666666H85.333333c-23.466667 0-42.666667 19.2-42.666666 42.666666v64c0 23.466667 19.2 42.666667 42.666666 42.666667z m202.666667-106.666667h42.666667c17.066667 0 32 14.933333 32 32s-14.933333 32-32 32h-42.666667c-17.066667 0-32-14.933333-32-32s14.933333-32 32-32z m-149.333333 0h42.666666c17.066667 0 32 14.933333 32 32S198.4 277.333333 181.333333 277.333333h-42.666666c-17.066667 0-32-14.933333-32-32S121.6 213.333333 138.666667 213.333333zM789.333333 469.333333c-106.666667 0-192 85.333333-192 192s85.333333 192 192 192 192-85.333333 192-192-85.333333-192-192-192z m-27.733333 279.466667h-64c-12.8 0-19.2-8.533333-19.2-21.333333v-142.933334c0-12.8 6.4-19.2 19.2-19.2 12.8 0 19.2 6.4 19.2 19.2v128h44.8c12.8 0 19.2 6.4 19.2 17.066667-2.133333 12.8-8.533333 19.2-19.2 19.2z m100.266667 0h-53.333334c-12.8 0-19.2-6.4-19.2-19.2v-145.066667c0-12.8 6.4-19.2 19.2-19.2h49.066667c29.866667 2.133333 46.933333 17.066667 49.066667 44.8 0 17.066667-8.533333 29.866667-23.466667 36.266667 23.466667 6.4 36.266667 19.2 38.4 42.666667-2.133333 38.4-21.333333 57.6-59.733333 59.733333z" p-id="884"></path><path d="M853.333333 672h-27.733333v42.666667h29.866667c14.933333 0 23.466667-8.533333 23.466666-21.333334 0-14.933333-8.533333-21.333333-25.6-21.333333zM868.266667 618.666667c0-10.666667-8.533333-17.066667-21.333334-17.066667h-19.2V640h19.2c12.8-2.133333 19.2-8.533333 21.333334-21.333333z" p-id="885"></path></svg>